<svg width="69" height="51" viewBox="0 0 69 51" fill="current" xmlns="http://www.w3.org/2000/svg">
<path d="M0.000488281 41.6338L8.01039 36.5856C9.55592 39.4387 10.9616 41.8531 14.3336 41.8531C17.5659 41.8531 19.604 40.5365 19.604 35.4151V0.585887H29.4404V35.5598C29.4404 46.1693 23.4685 50.9988 14.7553 50.9988C6.88637 50.9988 2.31922 46.7556 0.000488281 41.6338ZM34.7833 40.536L42.7923 35.7072C44.901 39.2928 47.6413 41.9268 52.4888 41.9268C56.565 41.9268 59.1637 39.8045 59.1637 36.8777C59.1637 33.3658 56.4937 32.1216 51.997 30.0734L49.5385 28.975C42.4414 25.8295 37.7341 21.8782 37.7341 13.537C37.7341 5.85384 43.3549 0 52.1379 0C58.3914 0 62.8882 2.26862 66.1198 8.19528L58.461 13.3176C56.7742 10.1714 54.9483 8.92752 52.1377 8.92752C49.2567 8.92752 47.4298 10.83 47.4298 13.3176C47.4298 16.3906 49.2567 17.6352 53.4721 19.5377L55.9311 20.635C64.2927 24.367 69.0001 28.1714 69.0001 36.7315C69.0001 45.9518 62.0442 51 52.6993 51C43.5656 51 37.6638 46.463 34.7833 40.536Z" fill="current"/>
</svg>
