<svg width="25" height="25" viewBox="0 0 32 32" fill="none" xmlns="http://www.w3.org/2000/svg">
<path d="M29.0625 0.5625H2.9375C2.30761 0.5625 1.70352 0.812722 1.25812 1.25812C0.812722 1.70352 0.5625 2.30761 0.5625 2.9375V29.0625C0.5625 29.6924 0.812722 30.2965 1.25812 30.7419C1.70352 31.1873 2.30761 31.4375 2.9375 31.4375H29.0625C29.6924 31.4375 30.2965 31.1873 30.7419 30.7419C31.1873 30.2965 31.4375 29.6924 31.4375 29.0625V2.9375C31.4375 2.30761 31.1873 1.70352 30.7419 1.25812C30.2965 0.812722 29.6924 0.5625 29.0625 0.5625ZM29.0625 29.0625H2.9375V2.9375H29.0625V29.0625ZM11.25 13.625V23.125C11.25 23.4399 11.1249 23.742 10.9022 23.9647C10.6795 24.1874 10.3774 24.3125 10.0625 24.3125C9.74756 24.3125 9.44551 24.1874 9.22281 23.9647C9.00011 23.742 8.875 23.4399 8.875 23.125V13.625C8.875 13.3101 9.00011 13.008 9.22281 12.7853C9.44551 12.5626 9.74756 12.4375 10.0625 12.4375C10.3774 12.4375 10.6795 12.5626 10.9022 12.7853C11.1249 13.008 11.25 13.3101 11.25 13.625ZM24.3125 17.7812V23.125C24.3125 23.4399 24.1874 23.742 23.9647 23.9647C23.742 24.1874 23.4399 24.3125 23.125 24.3125C22.8101 24.3125 22.508 24.1874 22.2853 23.9647C22.0626 23.742 21.9375 23.4399 21.9375 23.125V17.7812C21.9375 16.9939 21.6247 16.2388 21.068 15.682C20.5112 15.1253 19.7561 14.8125 18.9688 14.8125C18.1814 14.8125 17.4263 15.1253 16.8695 15.682C16.3128 16.2388 16 16.9939 16 17.7812V23.125C16 23.4399 15.8749 23.742 15.6522 23.9647C15.4295 24.1874 15.1274 24.3125 14.8125 24.3125C14.4976 24.3125 14.1955 24.1874 13.9728 23.9647C13.7501 23.742 13.625 23.4399 13.625 23.125V13.625C13.6265 13.3341 13.7347 13.0539 13.929 12.8375C14.1234 12.6211 14.3904 12.4836 14.6795 12.451C14.9685 12.4184 15.2595 12.493 15.4971 12.6607C15.7348 12.8284 15.9026 13.0775 15.9688 13.3608C16.7722 12.8158 17.7087 12.5 18.678 12.4472C19.6473 12.3944 20.6127 12.6066 21.4705 13.061C22.3282 13.5155 23.046 14.195 23.5467 15.0266C24.0474 15.8582 24.3122 16.8105 24.3125 17.7812ZM11.8438 9.46875C11.8438 9.82105 11.7393 10.1654 11.5436 10.4584C11.3478 10.7513 11.0696 10.9796 10.7442 11.1144C10.4187 11.2492 10.0605 11.2845 9.71499 11.2158C9.36947 11.147 9.05208 10.9774 8.80297 10.7283C8.55385 10.4792 8.38421 10.1618 8.31548 9.81626C8.24675 9.47073 8.28202 9.11258 8.41684 8.7871C8.55166 8.46161 8.77997 8.18342 9.07289 7.98769C9.36582 7.79197 9.7102 7.6875 10.0625 7.6875C10.5349 7.6875 10.988 7.87517 11.322 8.20922C11.6561 8.54326 11.8438 8.99633 11.8438 9.46875Z" fill="currentColor"/>
</svg>
