<svg width="24" height="24" viewBox="0 0 24 24" fill="none" xmlns="http://www.w3.org/2000/svg">
<path d="M24 8.64214C24 8.89681 23.9027 9.14105 23.7295 9.32113C23.5564 9.50121 23.3215 9.60238 23.0766 9.60238H21.2299V11.5229C21.2299 11.7775 21.1326 12.0218 20.9594 12.2018C20.7862 12.3819 20.5514 12.4831 20.3065 12.4831C20.0616 12.4831 19.8267 12.3819 19.6536 12.2018C19.4804 12.0218 19.3831 11.7775 19.3831 11.5229V9.60238H17.5363C17.2914 9.60238 17.0566 9.50121 16.8834 9.32113C16.7102 9.14105 16.613 8.89681 16.613 8.64214C16.613 8.38747 16.7102 8.14323 16.8834 7.96315C17.0566 7.78307 17.2914 7.6819 17.5363 7.6819H19.3831V5.76143C19.3831 5.50675 19.4804 5.26251 19.6536 5.08244C19.8267 4.90236 20.0616 4.80119 20.3065 4.80119C20.5514 4.80119 20.7862 4.90236 20.9594 5.08244C21.1326 5.26251 21.2299 5.50675 21.2299 5.76143V7.6819H23.0766C23.3215 7.6819 23.5564 7.78307 23.7295 7.96315C23.9027 8.14323 24 8.38747 24 8.64214ZM12.9194 3.84095H13.8428V4.80119C13.8428 5.05586 13.9401 5.3001 14.1133 5.48018C14.2864 5.66026 14.5213 5.76143 14.7662 5.76143C15.0111 5.76143 15.246 5.66026 15.4191 5.48018C15.5923 5.3001 15.6896 5.05586 15.6896 4.80119V3.84095H16.613C16.8579 3.84095 17.0927 3.73978 17.2659 3.5597C17.4391 3.37962 17.5363 3.13538 17.5363 2.88071C17.5363 2.62604 17.4391 2.3818 17.2659 2.20172C17.0927 2.02164 16.8579 1.92048 16.613 1.92048H15.6896V0.960238C15.6896 0.705567 15.5923 0.461326 15.4191 0.281247C15.246 0.101168 15.0111 0 14.7662 0C14.5213 0 14.2864 0.101168 14.1133 0.281247C13.9401 0.461326 13.8428 0.705567 13.8428 0.960238V1.92048H12.9194C12.6745 1.92048 12.4397 2.02164 12.2665 2.20172C12.0933 2.3818 11.9961 2.62604 11.9961 2.88071C11.9961 3.13538 12.0933 3.37962 12.2665 3.5597C12.4397 3.73978 12.6745 3.84095 12.9194 3.84095ZM21.3187 15.4838C21.4262 15.614 21.4982 15.7717 21.5272 15.9405C21.5563 16.1094 21.5413 16.2833 21.4838 16.4441C20.8431 18.2612 19.7725 19.8812 18.3709 21.1546C16.9694 22.428 15.2819 23.3138 13.4644 23.7302C11.6468 24.1466 9.75765 24.0801 7.97127 23.537C6.1849 22.9939 4.55885 21.9917 3.24319 20.6227C1.92754 19.2538 0.964659 17.5622 0.443422 15.7043C-0.0778145 13.8463 -0.140616 11.8817 0.260813 9.9918C0.662242 8.10192 1.51497 6.34763 2.7403 4.89084C3.96562 3.43404 5.52407 2.32168 7.27182 1.65641C7.42565 1.59782 7.5917 1.58285 7.75294 1.61303C7.91417 1.64321 8.06478 1.71745 8.18931 1.82814C8.31385 1.93883 8.40782 2.08198 8.46159 2.2429C8.51536 2.40383 8.527 2.57674 8.4953 2.74388C8.17171 4.44706 8.25649 6.20691 8.74214 7.86793C9.22779 9.52896 10.0994 11.04 11.2799 12.2676C12.4604 13.4953 13.9134 14.4016 15.5107 14.9067C17.108 15.4117 18.8003 15.4999 20.4381 15.1634C20.599 15.1306 20.7654 15.1431 20.9202 15.1994C21.075 15.2557 21.2125 15.3539 21.3187 15.4838ZM19.0807 17.2699C18.8741 17.2807 18.6663 17.2867 18.4597 17.2867C15.2767 17.2832 12.2251 15.9665 9.97455 13.6258C7.72404 11.285 6.45853 8.11125 6.45578 4.80119C6.45578 4.58633 6.45578 4.37028 6.47194 4.15543C5.24336 4.89062 4.19404 5.91009 3.40528 7.13483C2.61651 8.35958 2.10947 9.75672 1.92345 11.218C1.73743 12.6793 1.87741 14.1655 2.33256 15.5615C2.78771 16.9575 3.5458 18.2258 4.5481 19.2681C5.55041 20.3104 6.77 21.0988 8.11241 21.5721C9.45481 22.0454 10.884 22.191 12.2892 21.9975C13.6944 21.8041 15.0379 21.2768 16.2157 20.4565C17.3934 19.6363 18.3737 18.5451 19.0807 17.2675V17.2699Z" fill="current"/>
</svg>
