<svg width="153" height="31" viewBox="0 0 153 31" fill="current" xmlns="http://www.w3.org/2000/svg">
<path d="M101.71 0.0129395H128.36V4.98351H117.788V31.133H112.502V4.98351H101.71V0.0129395Z" fill="current"/>
<path d="M57.8806 0.0129395V4.98351H36.5188V12.9796H53.6979V17.9502H36.5188V26.1624H57.8806V31.133H31.2329V4.98351H31.2307V0.0129395H57.8806Z" fill="current"/>
<path d="M71.1876 0.0258789H64.27L89.0475 31.1459H95.9853L83.595 15.5966L95.9655 0.0496215L89.0475 0.0604244L80.1315 11.2501L71.1876 0.0258789Z" fill="current"/>
<path d="M78.2862 22.2551L74.822 17.9026L64.2502 31.1697H71.1877L78.2862 22.2551Z" fill="current"/>
<path fill-rule="evenodd" clip-rule="evenodd" d="M31.4182 31.133L6.60739 0H0V31.12H5.28592V6.65189L24.7777 31.133H31.4182Z" fill="current"/>
<path d="M129.548 30.9428C129.161 30.9428 128.832 30.8073 128.556 30.5363C128.28 30.2653 128.144 29.9371 128.147 29.5484C128.144 29.1704 128.28 28.8458 128.556 28.5748C128.832 28.3038 129.161 28.1682 129.548 28.1682C129.92 28.1682 130.246 28.3038 130.522 28.5748C130.801 28.8458 130.941 29.1704 130.945 29.5484C130.941 29.8052 130.876 30.0405 130.748 30.2509C130.615 30.465 130.447 30.6326 130.235 30.7538C130.028 30.8787 129.798 30.9428 129.548 30.9428Z" fill="current"/>
<path d="M138.57 17.833H140.912V26.9522C140.909 27.7903 140.729 28.5072 140.379 29.1099C140.024 29.7126 139.533 30.1726 138.903 30.4972C138.276 30.8181 137.542 30.9822 136.708 30.9822C135.944 30.9822 135.261 30.8431 134.652 30.5721C134.043 30.3011 133.559 29.8945 133.205 29.3595C132.846 28.8245 132.671 28.1577 132.671 27.3588H135.017C135.021 27.7083 135.099 28.0114 135.25 28.2646C135.4 28.5178 135.608 28.7104 135.873 28.8459C136.141 28.9815 136.45 29.0492 136.797 29.0492C137.173 29.0492 137.495 28.9708 137.757 28.8103C138.018 28.6533 138.219 28.418 138.359 28.1041C138.495 27.7939 138.566 27.4087 138.57 26.9522V17.833Z" fill="current"/>
<path d="M150.55 21.3993C150.493 20.8465 150.242 20.415 149.805 20.1083C149.364 19.798 148.795 19.6447 148.097 19.6447C147.606 19.6447 147.184 19.7196 146.833 19.8658C146.482 20.0156 146.209 20.2153 146.023 20.4685C145.837 20.7217 145.744 21.0106 145.736 21.3352C145.736 21.6062 145.801 21.8416 145.926 22.0377C146.052 22.2374 146.22 22.405 146.438 22.5406C146.653 22.6797 146.893 22.7938 147.155 22.8865C147.42 22.9792 147.685 23.0577 147.95 23.1219L149.171 23.425C149.662 23.5391 150.138 23.6925 150.593 23.8887C151.048 24.0812 151.46 24.3273 151.821 24.6233C152.183 24.9193 152.47 25.276 152.681 25.6932C152.892 26.1105 153 26.5991 153 27.1626C153 27.9222 152.807 28.5891 152.416 29.1669C152.026 29.741 151.463 30.1904 150.726 30.515C149.991 30.836 149.103 31 148.057 31C147.047 31 146.166 30.8431 145.425 30.5292C144.68 30.219 144.1 29.7624 143.681 29.1633C143.262 28.5642 143.036 27.833 143.004 26.9735H145.325C145.357 27.4229 145.5 27.7974 145.744 28.1005C145.991 28.4001 146.313 28.6212 146.707 28.771C147.105 28.9172 147.549 28.9921 148.039 28.9921C148.552 28.9921 149.003 28.9136 149.393 28.7603C149.78 28.6069 150.084 28.393 150.303 28.1148C150.525 27.8402 150.636 27.5157 150.64 27.1448C150.636 26.806 150.536 26.5242 150.342 26.303C150.145 26.082 149.873 25.8965 149.526 25.7467C149.175 25.597 148.766 25.4614 148.301 25.3437L146.818 24.9657C145.747 24.6911 144.898 24.2738 144.279 23.7139C143.656 23.154 143.347 22.4122 143.347 21.4814C143.347 20.7182 143.555 20.0477 143.974 19.4735C144.39 18.8993 144.959 18.4535 145.679 18.1361C146.403 17.8152 147.219 17.6582 148.129 17.6582C149.053 17.6582 149.862 17.8152 150.561 18.1361C151.259 18.4535 151.807 18.8958 152.205 19.4592C152.602 20.0227 152.81 20.6682 152.821 21.3993H150.55Z" fill="current"/>
</svg>
