<svg width="128" height="38" viewBox="0 0 128 38" fill="none" xmlns="http://www.w3.org/2000/svg">
<path d="M112.491 37.7013C112.16 37.7013 111.852 37.6126 111.565 37.4574L108.635 35.7062C108.195 35.4623 108.415 35.3736 108.547 35.3293C109.142 35.1298 109.252 35.0854 109.869 34.7308C109.935 34.6864 110.023 34.7086 110.089 34.753L112.336 36.1052C112.425 36.1495 112.535 36.1495 112.601 36.1052L121.391 30.9843C121.479 30.94 121.524 30.8513 121.524 30.7405V20.5209C121.524 20.4102 121.479 20.3215 121.391 20.2772L112.601 15.1785C112.513 15.1342 112.402 15.1342 112.336 15.1785L103.546 20.2772C103.458 20.3215 103.414 20.4323 103.414 20.5209V30.7405C103.414 30.8292 103.458 30.94 103.546 30.9843L105.947 32.381C107.247 33.046 108.062 32.2701 108.062 31.4942V21.4077C108.062 21.2747 108.172 21.1417 108.327 21.1417H109.45C109.582 21.1417 109.715 21.2525 109.715 21.4077V31.4942C109.715 33.2455 108.767 34.2652 107.115 34.2652C106.608 34.2652 106.212 34.2652 105.088 33.7111L102.775 32.381C102.202 32.0484 101.85 31.4277 101.85 30.7626V20.5432C101.85 19.8781 102.202 19.2574 102.775 18.9248L111.565 13.804C112.116 13.4937 112.865 13.4937 113.416 13.804L122.207 18.9248C122.779 19.2574 123.131 19.8781 123.131 20.5432V30.7626C123.131 31.4277 122.779 32.0484 122.207 32.381L113.416 37.5018C113.151 37.6127 112.821 37.7013 112.491 37.7013Z" fill="current"/>
<path d="M115.223 30.674C111.367 30.674 110.574 28.9005 110.574 27.3931C110.574 27.2601 110.684 27.1271 110.838 27.1271H111.984C112.116 27.1271 112.226 27.2158 112.226 27.3488C112.402 28.5237 112.909 29.1001 115.245 29.1001C117.095 29.1001 117.889 28.6789 117.889 27.6813C117.889 27.105 117.667 26.6838 114.782 26.3955C112.38 26.1516 110.882 25.6196 110.882 23.691C110.882 21.8954 112.38 20.8313 114.892 20.8313C117.712 20.8313 119.1 21.8067 119.276 23.9349C119.276 24.0014 119.254 24.0679 119.21 24.1344C119.166 24.1788 119.1 24.2231 119.033 24.2231H117.865C117.756 24.2231 117.646 24.1344 117.624 24.0235C117.359 22.8043 116.676 22.4053 114.87 22.4053C112.843 22.4053 112.601 23.1146 112.601 23.6466C112.601 24.2895 112.887 24.4891 115.619 24.8438C118.328 25.1984 119.607 25.7083 119.607 27.6148C119.607 29.5655 117.998 30.674 115.223 30.674Z" fill="current"/>
<path d="M127.914 19.9444C127.914 20.8756 127.142 21.6514 126.216 21.6514C125.292 21.6514 124.52 20.8977 124.52 19.9444C124.52 18.9691 125.313 18.2375 126.216 18.2375C127.12 18.2375 127.914 18.9912 127.914 19.9444ZM124.785 19.9444C124.785 20.7426 125.424 21.3854 126.194 21.3854C126.988 21.3854 127.627 20.7203 127.627 19.9444C127.627 19.1464 126.988 18.5258 126.194 18.5258C125.446 18.5258 124.785 19.1464 124.785 19.9444ZM125.578 18.9912H126.239C126.459 18.9912 126.9 18.9912 126.9 19.5011C126.9 19.8558 126.679 19.9223 126.547 19.9667C126.812 19.9888 126.833 20.1662 126.855 20.41C126.877 20.5652 126.9 20.8312 126.944 20.9199H126.547C126.547 20.8312 126.481 20.3436 126.481 20.3213C126.459 20.2106 126.415 20.1662 126.283 20.1662H125.952V20.942H125.578V18.9912ZM125.931 19.8337H126.216C126.459 19.8337 126.503 19.6563 126.503 19.5677C126.503 19.3017 126.327 19.3017 126.216 19.3017H125.909V19.8337H125.931Z" fill="current"/>
<path fill-rule="evenodd" clip-rule="evenodd" d="M20.9075 20.0841C20.9075 19.6851 20.6872 19.3084 20.3347 19.1088L11.0156 13.6776C10.8613 13.5889 10.6851 13.5446 10.5088 13.5225C10.4868 13.5225 10.4207 13.5225 10.4207 13.5225C10.2445 13.5225 10.0682 13.5889 9.91399 13.6776L0.572809 19.0866C0.220311 19.2861 0 19.663 0 20.0841L0.0220311 34.6265C0.0220311 34.8261 0.132187 35.0255 0.308436 35.1142C0.484684 35.2251 0.704996 35.2251 0.859213 35.1142L6.41105 31.9219C6.76355 31.7225 6.98386 31.3456 6.98386 30.9466V24.1409C6.98386 23.7419 7.20417 23.365 7.55667 23.1656L9.91399 21.7911C10.0902 21.6803 10.2885 21.6359 10.4868 21.6359C10.6851 21.6359 10.8834 21.6803 11.0376 21.7911L13.3949 23.1656C13.7474 23.365 13.9678 23.7419 13.9678 24.1409V30.9466C13.9678 31.3456 14.188 31.7225 14.5405 31.9219L20.0483 35.1142C20.2245 35.2251 20.4448 35.2251 20.6211 35.1142C20.7974 35.0255 20.9075 34.8261 20.9075 34.6265V20.0841Z" fill="current"/>
<path fill-rule="evenodd" clip-rule="evenodd" d="M65.8069 0.0665045C65.6306 -0.0221682 65.4103 -0.0221682 65.256 0.0665045C65.0798 0.177345 64.9696 0.354691 64.9696 0.554205V14.9635C64.9696 15.0965 64.9035 15.2295 64.7713 15.3183C64.6391 15.3847 64.507 15.3847 64.3748 15.3183L62.0395 13.9659C61.687 13.7665 61.2684 13.7665 60.9159 13.9659L51.5747 19.3972C51.2222 19.5967 51.002 19.9735 51.002 20.3725V31.2127C51.002 31.6119 51.2222 31.9886 51.5747 32.1882L60.9159 37.6194C61.2684 37.8189 61.687 37.8189 62.0395 37.6194L71.3807 32.1882C71.7331 31.9886 71.9535 31.6119 71.9535 31.2127V4.18979C71.9535 3.76859 71.7331 3.39173 71.3807 3.19222L65.8069 0.0665045ZM64.9476 27.6437C64.9476 27.7545 64.9035 27.8432 64.8154 27.8875L61.6209 29.7497C61.5328 29.7941 61.4226 29.7941 61.3345 29.7497L58.14 27.8875C58.0519 27.8432 58.0078 27.7324 58.0078 27.6437V23.9195C58.0078 23.8086 58.0519 23.7199 58.14 23.6756L61.3345 21.8135C61.4226 21.7692 61.5328 21.7692 61.6209 21.8135L64.8154 23.6756C64.9035 23.7199 64.9476 23.8308 64.9476 23.9195V27.6437Z" fill="current"/>
<path fill-rule="evenodd" clip-rule="evenodd" d="M96.8922 23.8308C97.2448 23.6313 97.443 23.2545 97.443 22.8554V20.2174C97.443 19.8184 97.2227 19.4415 96.8922 19.242L87.6171 13.833C87.2646 13.6335 86.846 13.6335 86.4936 13.833L77.1524 19.2641C76.7999 19.4637 76.5796 19.8406 76.5796 20.2396V31.0798C76.5796 31.4788 76.7999 31.8557 77.1524 32.0552L86.4275 37.3755C86.7799 37.5751 87.1985 37.5751 87.529 37.3755L93.1469 34.2277C93.3232 34.1391 93.4334 33.9395 93.4334 33.74C93.4334 33.5405 93.3232 33.341 93.1469 33.2523L83.7617 27.821C83.5854 27.7103 83.4753 27.5329 83.4753 27.3334V23.9417C83.4753 23.7422 83.5854 23.5426 83.7617 23.4539L86.6919 21.7691C86.8681 21.6584 87.0884 21.6584 87.2646 21.7691L90.1948 23.4539C90.3711 23.5648 90.4811 23.7422 90.4811 23.9417V26.6018C90.4811 26.8014 90.5913 27.0008 90.7676 27.0895C90.9438 27.2004 91.1641 27.2004 91.3404 27.0895L96.8922 23.8308Z" fill="current"/>
<path fill-rule="evenodd" clip-rule="evenodd" d="M86.9122 23.3211C86.9783 23.2768 87.0665 23.2768 87.1326 23.3211L88.9171 24.363C88.9832 24.4073 89.0272 24.4739 89.0272 24.5625V26.6463C89.0272 26.735 88.9832 26.8015 88.9171 26.8459L87.1326 27.8878C87.0665 27.9321 86.9783 27.9321 86.9122 27.8878L85.1277 26.8459C85.0616 26.8015 85.0176 26.735 85.0176 26.6463V24.5625C85.0176 24.4739 85.0616 24.4073 85.1277 24.363L86.9122 23.3211Z" fill="current"/>
<path d="M36.5267 13.8771C36.1741 13.6777 35.7555 13.6777 35.403 13.8771L26.1279 19.264C25.7754 19.4636 25.5771 19.8404 25.5771 20.2395V31.0353C25.5771 31.4344 25.7974 31.8112 26.1279 32.0107L35.403 37.3976C35.7555 37.5971 36.1741 37.5971 36.5267 37.3976L45.8017 32.0107C46.1543 31.8112 46.3524 31.4344 46.3524 31.0353V20.2395C46.3524 19.8404 46.1322 19.4636 45.8017 19.264L36.5267 13.8771Z" fill="current"/>
</svg>
