<svg width="112" height="99" viewBox="0 0 112 99" fill="none" xmlns="http://www.w3.org/2000/svg">
<path d="M91.4375 32.6749L87.8937 31.4937C87.8937 30.7062 88.2875 29.9187 88.2875 29.1312C91.0437 16.1374 89.075 5.5061 83.1687 1.96235C77.2625 -1.18765 67.8125 1.96235 58.3625 10.2311C57.575 11.0186 56.3937 11.8061 55.6062 12.5936C54.8187 12.1999 54.425 11.4124 53.6375 11.0186C44.1875 2.3561 34.3438 -1.18765 28.4375 2.3561C22.5312 5.5061 20.9562 15.7436 23.3187 27.9499C23.7125 29.1312 23.7125 30.3124 24.1062 31.4937C22.5312 31.8874 21.35 32.2812 20.1687 32.6749C8.35625 36.6124 0.875 43.3062 0.875 49.6062C0.875 56.2999 8.75 63.3874 20.9562 67.3249C21.7437 67.7187 22.925 68.1124 24.1062 68.1124C23.7125 69.2937 23.3187 70.8687 23.3187 72.0499C20.9562 84.2562 22.925 93.7062 28.4375 97.2499C34.3438 100.794 44.1875 97.2499 54.0312 88.5874C54.8187 87.7999 55.6062 87.0124 56.3937 86.6187C57.1812 87.4062 58.3625 88.5874 59.5437 89.3749C68.9937 97.6437 78.05 100.794 83.9562 97.2499C89.8625 93.7062 91.8312 83.4687 89.4687 70.8687C89.4687 70.0812 89.075 68.8999 88.6812 67.7187C89.4687 67.3249 90.2562 67.3249 90.65 66.9312C103.25 62.5999 111.519 55.9062 111.519 49.2124C111.125 43.3062 103.25 37.0062 91.4375 32.6749ZM61.9062 14.1686C70.175 7.0811 77.6562 4.32485 81.2 6.2936C84.7437 8.26235 86.3187 16.9249 83.9562 28.3437C83.9562 29.1312 83.5625 29.9187 83.5625 30.7062C78.8375 29.5249 73.7188 28.7374 68.9937 28.3437C66.2375 24.4062 63.0875 20.4687 59.5437 16.5311L61.9062 14.1686ZM33.5562 55.5124C34.7375 57.4812 35.525 59.4499 36.7062 61.4187C37.8875 63.3874 39.0687 65.3562 40.25 66.9312C36.7062 66.5374 33.5562 66.1437 30.0125 65.3562C30.8 62.2062 31.9812 59.0562 33.5562 55.5124ZM33.5562 44.4874C31.9812 41.3374 31.1937 38.1874 30.0125 35.0374C33.1625 34.2499 36.7062 33.8562 39.8562 33.4624C38.675 35.4312 37.4937 37.0062 36.3125 38.9749C35.525 40.5499 34.3438 42.5187 33.5562 44.4874ZM35.9187 49.9999C37.4937 46.8499 39.0687 44.0937 40.6437 40.9437C42.2188 38.1874 44.1875 35.0374 46.1562 32.2812C49.3062 31.8874 52.85 31.8874 56.3937 31.8874C59.9375 31.8874 63.0875 31.8874 66.6312 32.2812C68.6 35.0374 70.175 37.7937 71.75 40.9437C73.325 43.6999 74.9 46.8499 76.475 49.9999C74.9 53.1499 73.325 55.9062 71.75 59.0562C70.175 61.8124 68.2062 64.9624 66.6312 67.7187C63.4812 68.1124 59.9375 68.1124 56.3937 68.1124C52.85 68.1124 49.7 68.1124 46.55 67.7187C44.5812 64.9624 43.0062 62.2062 41.0375 59.0562C39.0687 55.9062 37.4937 53.1499 35.9187 49.9999ZM75.2937 61.4187C76.475 59.4499 77.6562 57.4812 78.4437 55.5124C80.0187 58.6624 81.2 61.8124 81.9875 65.3562C78.4437 66.1437 75.2937 66.5374 71.75 66.9312C73.325 64.9624 74.5062 62.9937 75.2937 61.4187ZM78.4437 44.4874C77.2625 42.5187 76.475 40.5499 75.2937 38.5812C74.1125 36.6124 72.9312 35.0374 72.1437 33.0687C75.6875 33.4624 78.8375 34.2499 82.3812 34.6437C81.2 38.1874 80.0187 41.3374 78.4437 44.4874ZM56 19.6812C58.3625 22.0437 60.3312 24.7999 62.3 27.5562C57.9687 27.1624 53.6375 27.1624 49.3062 27.5562C51.6687 24.7999 54.0312 22.0437 56 19.6812ZM30.8 6.2936C34.3438 4.32485 42.6125 7.0811 51.275 14.9561L52.85 16.5311C49.3062 20.0749 46.1562 24.0124 43.4 28.3437C38.2812 28.7374 33.5562 29.5249 28.8312 30.7062C28.4375 29.5249 28.4375 28.3437 28.0437 27.1624C25.6812 16.5311 27.2562 8.26235 30.8 6.2936ZM25.2875 64.1749C24.5 63.7812 23.3187 63.7812 22.5312 63.3874C17.0187 61.4187 12.6875 59.0562 9.5375 56.6937C6.78125 54.3312 5.6 51.9687 5.6 49.9999C5.6 46.0624 11.5062 40.9437 21.7437 37.3999C22.925 37.0062 24.1062 36.6124 25.6812 36.2187C26.8625 40.9437 28.4375 45.6687 30.8 49.9999C28.4375 54.7249 26.8625 59.4499 25.2875 64.1749ZM50.8812 85.8312C46.55 89.7687 42.2188 92.1312 38.675 93.7062C35.1312 94.8874 32.7687 94.8874 30.8 94.0999C27.2562 92.1312 25.6812 84.2562 27.65 74.0187C28.0437 72.4437 28.4375 71.2624 28.4375 69.6874C33.1625 70.8687 38.2812 71.6562 43.4 71.6562C46.1562 75.5937 49.3062 79.5312 52.85 83.4687C52.0625 84.2562 51.6687 85.0437 50.8812 85.8312ZM56 80.3187C53.6375 77.9562 51.6687 75.1999 49.3062 72.4437H62.3C60.725 75.1999 58.3625 77.9562 56 80.3187ZM84.7437 87.0124C83.9562 90.5562 82.775 92.9187 81.2 93.7062C77.6562 95.6749 70.175 92.9187 62.3 86.2249C61.5125 85.4374 60.3312 84.6499 59.5437 83.8624C62.6937 80.3187 65.8438 76.3812 68.6 72.0499C73.7188 71.6562 78.4437 70.8687 83.5625 69.6874C83.9562 70.4749 83.9562 71.6562 84.35 72.4437C85.5312 77.9562 85.5312 83.0749 84.7437 87.0124ZM88.6812 63.3874C87.8937 63.3874 87.5 63.7812 86.7125 63.7812C85.1375 59.0562 83.1687 54.3312 81.2 49.6062C83.1687 45.2749 85.1375 40.5499 86.7125 35.8249C87.8937 36.2187 89.075 36.6124 89.8625 37.0062C100.1 40.5499 106.4 45.6687 106.4 49.6062C106.4 54.3312 99.7062 59.8437 88.6812 63.3874Z" fill="current"/>
<path d="M56 59.8438C57.9687 59.8438 59.9375 59.45 61.5125 58.2688C63.0875 57.0875 64.2687 55.5125 65.0562 53.9375C65.8437 51.9688 65.8437 50 65.45 48.0313C65.0562 46.0625 64.2687 44.4875 62.6937 42.9125C61.5125 41.3375 59.5437 40.55 57.575 40.1563C55.6062 39.7625 53.6375 40.1563 51.6687 40.55C49.7 41.3375 48.125 42.5188 47.3375 44.0938C46.1562 45.6688 45.7625 47.6375 45.7625 49.6063C45.7625 50.7875 46.1562 52.3625 46.55 53.5438C46.9437 54.725 47.7312 55.9063 48.5187 56.6938C49.3062 57.4813 50.4875 58.2688 51.6687 58.6625C53.2437 59.45 54.8187 59.8438 56 59.8438Z" fill="current"/>
</svg>
