<svg width="119" height="89" viewBox="0 0 119 89" fill="none" xmlns="http://www.w3.org/2000/svg">
<path d="M102.405 51.1285C98.2448 51.1517 94.6422 52.1483 91.6207 53.6317C90.5051 51.4298 89.3895 49.5061 89.2035 48.0692C88.9944 46.4004 88.7387 45.3806 88.9944 43.3874C89.25 41.3942 90.4121 38.5666 90.4121 38.3348C90.3889 38.1262 90.1565 37.1064 87.7625 37.0832C85.3686 37.0601 83.3 37.5468 83.0676 38.1726C82.8352 38.7983 82.3703 40.2353 82.0682 41.7186C81.6498 43.8973 77.2803 51.6153 74.7934 55.6712C73.9799 54.0952 73.2826 52.7046 73.1432 51.5921C72.934 49.9233 72.6783 48.9035 72.934 46.9103C73.1897 44.9171 74.3518 42.0895 74.3518 41.8577C74.3285 41.6491 74.0961 40.6293 71.7022 40.6061C69.3082 40.583 67.2397 41.0697 67.0072 41.6955C66.7748 42.3212 66.5192 43.8046 66.0078 45.2416C65.5198 46.6785 59.7092 59.565 58.1985 62.9257C57.4315 64.6408 56.7575 66.0082 56.2694 66.9353C55.7813 67.8624 56.2461 67.0048 56.1996 67.0976C55.7813 67.8856 55.5489 68.3259 55.5489 68.3259V68.3491C55.2235 68.9285 54.8748 69.4848 54.7121 69.4848C54.5959 69.4848 54.3635 67.9319 54.7586 65.7996C55.6186 61.3265 57.7104 54.3502 57.6871 54.0952C57.6871 53.9793 58.0823 52.7509 56.3391 52.1252C54.6424 51.4994 54.0381 52.5423 53.8987 52.5423C53.7592 52.5423 53.643 52.9132 53.643 52.9132C53.643 52.9132 55.5256 45.0561 50.0405 45.0561C46.6006 45.0561 41.8592 48.7877 39.5117 52.1947C38.0242 53.0059 34.8633 54.721 31.5164 56.552C30.2381 57.2473 28.9133 57.989 27.6582 58.6611L27.4026 58.383C20.7553 51.314 8.46018 46.3077 8.97151 36.8051C9.15745 33.3517 10.366 24.2431 32.5856 13.2108C50.7842 4.17177 65.3571 6.65172 67.8905 12.1679C71.493 20.0481 60.1043 34.696 41.1852 36.8051C33.9801 37.6163 30.1916 34.8351 29.2387 33.7921C28.2393 32.7028 28.0998 32.6564 27.728 32.865C27.1237 33.1895 27.4955 34.1629 27.728 34.7423C28.2858 36.2025 30.61 38.7983 34.5612 40.0962C38.0242 41.2319 46.4844 41.8577 56.711 37.9176C68.1694 33.4908 77.1176 21.2069 74.4912 10.9395C71.8184 0.486617 54.4332 -2.94359 38.001 2.87386C28.216 6.35042 17.6176 11.7739 9.99417 18.8892C0.929715 27.3257 -0.511301 34.696 0.0929963 37.7554C2.20804 48.6718 17.2922 55.7871 23.3352 61.0483C23.033 61.2106 22.7541 61.3728 22.4985 61.5119C19.477 62.9952 7.9721 68.9981 5.09007 75.3486C1.83616 82.5335 5.6014 87.702 8.11155 88.3973C15.8744 90.5528 23.8233 86.6822 28.1231 80.3085C32.3996 73.9348 31.8883 65.6606 29.9127 61.8827L29.843 61.7436L32.2137 60.353C33.7477 59.4491 35.2584 58.6147 36.5832 57.8963C35.8395 59.9127 35.3049 62.2999 35.026 65.7765C34.7006 69.8556 36.3741 75.14 38.5821 77.2259C39.5582 78.1299 40.7203 78.153 41.4408 78.153C43.9975 78.153 45.1596 76.0439 46.4379 73.5176C48.0184 70.4351 49.4129 66.8658 49.4129 66.8658C49.4129 66.8658 47.6698 76.5306 52.4344 76.5306C54.1776 76.5306 55.9207 74.2824 56.711 73.1236V73.1468C56.711 73.1468 56.7575 73.0772 56.8504 72.915C57.0364 72.6369 57.1293 72.4746 57.1293 72.4746V72.4283C57.8266 71.2231 59.3838 68.465 61.708 63.8991C64.7063 58.0121 67.5883 50.6418 67.5883 50.6418C67.5883 50.6418 67.8672 52.4496 68.7272 55.4163C69.2385 57.1778 70.3541 59.1015 71.2141 60.9788C70.5168 61.9522 70.0985 62.5085 70.0985 62.5085L70.1217 62.5317C69.5639 63.2733 68.9364 64.0614 68.2856 64.8494C65.9149 67.677 63.0793 70.8986 62.7074 71.8257C62.2658 72.915 62.3588 73.7262 63.2188 74.3752C63.8463 74.8387 64.9619 74.9314 66.1473 74.8387C68.2856 74.6996 69.7731 74.1666 70.5168 73.8421C71.6789 73.4249 73.0037 72.7991 74.2821 71.872C76.6063 70.1569 78.0241 67.7233 77.8846 64.4785C77.8149 62.6939 77.2338 60.9324 76.5133 59.2637C76.7225 58.9624 76.9317 58.6611 77.1408 58.3366C80.8131 52.9827 83.6487 47.0957 83.6487 47.0957C83.6487 47.0957 83.9276 48.9035 84.7875 51.8702C85.2291 53.3767 86.1123 55.0223 86.9026 56.6447C83.4627 59.4491 81.3012 62.6939 80.5574 64.8262C79.1862 68.7663 80.2553 70.5509 82.2774 70.9681C83.1838 71.1535 84.4854 70.7364 85.4616 70.3192C86.6701 69.9252 88.1344 69.253 89.4825 68.2564C91.8067 66.5413 94.0379 64.1541 93.9217 60.9324C93.852 59.4491 93.4569 57.989 92.9223 56.5983C95.8508 55.3931 99.6393 54.6978 104.45 55.2772C114.793 56.4824 116.839 62.9257 116.443 65.6142C116.048 68.3028 113.887 69.7861 113.166 70.2496C112.446 70.69 112.213 70.8522 112.283 71.1767C112.376 71.6634 112.701 71.6403 113.329 71.5476C114.189 71.4085 118.768 69.3457 118.954 64.3858C119.232 58.0121 113.166 51.059 102.405 51.1285ZM22.6379 77.9444C19.2213 81.6759 14.4102 83.0897 12.3649 81.8845C10.1569 80.6098 11.0168 75.1168 15.2237 71.1535C17.7803 68.7431 21.1039 66.5181 23.2887 65.1507C23.7768 64.8494 24.5205 64.409 25.4037 63.8759C25.5432 63.7832 25.6362 63.7369 25.6362 63.7369C25.7989 63.6442 25.9848 63.5283 26.1707 63.4124C27.728 69.0676 26.2405 74.0275 22.6379 77.9444ZM47.6233 61.002C46.4379 63.8991 43.9278 71.339 42.417 70.9218C41.1155 70.5741 40.3252 64.9421 42.1614 59.3796C43.091 56.5752 45.0666 53.2377 46.2287 51.9397C48.1114 49.8538 50.1567 49.1585 50.668 50.016C51.2723 51.1285 48.367 59.1942 47.6233 61.002ZM68.2391 70.8291C67.7278 71.084 67.2629 71.2694 67.0537 71.1304C66.891 71.0377 67.2629 70.69 67.2629 70.69C67.2629 70.69 69.8428 67.9319 70.8655 66.6572C71.4465 65.9155 72.1438 65.058 72.8875 64.0845V64.3627C72.8875 67.7002 69.6801 69.9252 68.2391 70.8291ZM84.1367 67.2134C83.7649 66.9353 83.8114 66.0778 85.0664 63.3892C85.5545 62.3231 86.6701 60.5384 88.5993 58.8465C88.8317 59.5418 88.9711 60.214 88.9479 60.8397C88.9246 65.0116 85.9496 66.5645 84.1367 67.2134Z" fill="current"/>
</svg>
