<svg width="82" height="101" viewBox="0 0 82 101" fill="none" xmlns="http://www.w3.org/2000/svg">
<path fill-rule="evenodd" clip-rule="evenodd" d="M0.00323432 9.6962L3.13423 93.0717C3.18236 94.3455 3.70754 95.5495 4.60557 96.4541C5.50361 97.3587 6.70887 97.8926 7.98223 97.95L75.7633 100.995C76.4485 101.026 77.1328 100.917 77.775 100.677C78.4171 100.436 79.0039 100.067 79.4998 99.5935C79.9958 99.1197 80.3906 98.5504 80.6607 97.9199C80.9307 97.2894 81.0702 96.6108 81.0709 95.925V5.0805C81.0716 4.38634 80.9299 3.69942 80.6546 3.0622C80.3793 2.42498 79.9761 1.85102 79.4702 1.3758C78.9642 0.900578 78.3661 0.534207 77.7129 0.299338C77.0596 0.0644696 76.3652 -0.0339035 75.6724 0.010302L70.0975 0.358887L70.5066 12.0143C70.5117 12.1589 70.4754 12.3019 70.4019 12.4265C70.3284 12.5511 70.2207 12.652 70.0916 12.7173C69.9626 12.7827 69.8175 12.8097 69.6735 12.7952C69.5296 12.7807 69.3928 12.7252 69.2794 12.6354L65.5222 9.67614L61.0782 13.0495C60.9636 13.1357 60.8269 13.1875 60.684 13.199C60.5411 13.2106 60.3979 13.1813 60.271 13.1147C60.144 13.0481 60.0386 12.9468 59.967 12.8226C59.8953 12.6984 59.8604 12.5565 59.8662 12.4132L60.3407 0.96908L4.77043 4.4442C3.44784 4.52502 2.20915 5.11939 1.31857 6.10054C0.427984 7.0817 -0.0440163 8.37198 0.00323432 9.6962ZM47.4079 39.0469C47.4079 41.0215 60.7197 40.0771 62.5023 38.6884C62.5023 25.2352 55.2859 18.1652 42.065 18.1652C28.8441 18.1652 21.4408 25.3463 21.4408 36.1129C21.4408 46.9047 29.8137 51.6063 36.9291 55.6008C42.1862 58.55 46.7514 61.1154 46.7514 65.4635C46.7514 68.3319 45.3475 70.0388 42.2518 70.0388C38.2219 70.0388 36.6261 67.9784 36.818 60.9791C36.818 59.4641 21.4408 58.9894 20.9711 60.9791C19.7793 77.942 30.349 82.8355 42.4437 82.8355C54.1597 82.8355 63.3507 76.5937 63.3507 65.2817C63.3507 53.4859 54.4996 48.7942 47.1926 44.9211L47.1907 44.9201C42.0448 42.1931 37.6614 39.8701 37.6614 35.7543C37.6614 31.7143 40.6611 31.179 42.4387 31.179C44.3173 31.179 47.6907 31.5073 47.4079 39.0469Z" fill="current"/>
</svg>
