<svg width="24" height="24" viewBox="0 0 24 24" fill="none" xmlns="http://www.w3.org/2000/svg">
<path d="M11.0769 1.84615V0.923077C11.0769 0.678262 11.1742 0.443473 11.3473 0.270363C11.5204 0.0972524 11.7552 0 12 0C12.2448 0 12.4796 0.0972524 12.6527 0.270363C12.8258 0.443473 12.9231 0.678262 12.9231 0.923077V1.84615C12.9231 2.09097 12.8258 2.32576 12.6527 2.49887C12.4796 2.67198 12.2448 2.76923 12 2.76923C11.7552 2.76923 11.5204 2.67198 11.3473 2.49887C11.1742 2.32576 11.0769 2.09097 11.0769 1.84615ZM19.3846 12C19.3846 13.4605 18.9515 14.8883 18.1401 16.1027C17.3287 17.3171 16.1753 18.2636 14.826 18.8225C13.4766 19.3814 11.9918 19.5277 10.5593 19.2427C9.12686 18.9578 7.81105 18.2545 6.77829 17.2217C5.74553 16.189 5.04222 14.8731 4.75728 13.4407C4.47234 12.0082 4.61858 10.5234 5.17751 9.17403C5.73643 7.82467 6.68293 6.67135 7.89733 5.85992C9.11172 5.04848 10.5395 4.61538 12 4.61538C13.9579 4.61752 15.8349 5.39623 17.2194 6.78065C18.6038 8.16507 19.3825 10.0421 19.3846 12ZM17.5385 12C17.5385 10.9046 17.2136 9.83379 16.6051 8.923C15.9965 8.0122 15.1315 7.30232 14.1195 6.88313C13.1075 6.46394 11.9939 6.35426 10.9195 6.56796C9.84514 6.78166 8.85828 7.30915 8.08372 8.08372C7.30915 8.85828 6.78166 9.84514 6.56796 10.9195C6.35426 11.9939 6.46394 13.1075 6.88313 14.1195C7.30232 15.1315 8.0122 15.9965 8.923 16.6051C9.83379 17.2136 10.9046 17.5385 12 17.5385C13.4684 17.5369 14.8763 16.9529 15.9146 15.9146C16.9529 14.8763 17.5369 13.4684 17.5385 12ZM3.96231 5.26846C4.13551 5.44167 4.37043 5.53897 4.61538 5.53897C4.86034 5.53897 5.09526 5.44167 5.26846 5.26846C5.44167 5.09526 5.53897 4.86034 5.53897 4.61538C5.53897 4.37043 5.44167 4.13551 5.26846 3.96231L4.34538 3.03923C4.17218 2.86602 3.93726 2.76872 3.69231 2.76872C3.44736 2.76872 3.21244 2.86602 3.03923 3.03923C2.86602 3.21244 2.76872 3.44736 2.76872 3.69231C2.76872 3.93726 2.86602 4.17218 3.03923 4.34538L3.96231 5.26846ZM3.96231 18.7315L3.03923 19.6546C2.86602 19.8278 2.76872 20.0627 2.76872 20.3077C2.76872 20.5526 2.86602 20.7876 3.03923 20.9608C3.21244 21.134 3.44736 21.2313 3.69231 21.2313C3.93726 21.2313 4.17218 21.134 4.34538 20.9608L5.26846 20.0377C5.35423 19.9519 5.42226 19.8501 5.46867 19.7381C5.51509 19.626 5.53897 19.5059 5.53897 19.3846C5.53897 19.2633 5.51509 19.1432 5.46867 19.0312C5.42226 18.9191 5.35423 18.8173 5.26846 18.7315C5.1827 18.6458 5.08088 18.5777 4.96883 18.5313C4.85677 18.4849 4.73667 18.461 4.61538 18.461C4.4941 18.461 4.374 18.4849 4.26194 18.5313C4.14989 18.5777 4.04807 18.6458 3.96231 18.7315ZM19.3846 5.53846C19.5059 5.53856 19.626 5.51476 19.738 5.46843C19.8501 5.42211 19.9519 5.35416 20.0377 5.26846L20.9608 4.34538C21.134 4.17218 21.2313 3.93726 21.2313 3.69231C21.2313 3.44736 21.134 3.21244 20.9608 3.03923C20.7876 2.86602 20.5526 2.76872 20.3077 2.76872C20.0627 2.76872 19.8278 2.86602 19.6546 3.03923L18.7315 3.96231C18.6023 4.09141 18.5143 4.25595 18.4786 4.4351C18.4429 4.61426 18.4612 4.79997 18.5311 4.96873C18.601 5.13749 18.7195 5.28171 18.8714 5.38313C19.0233 5.48455 19.2019 5.53861 19.3846 5.53846ZM20.0377 18.7315C19.8645 18.5583 19.6296 18.461 19.3846 18.461C19.1397 18.461 18.9047 18.5583 18.7315 18.7315C18.5583 18.9047 18.461 19.1397 18.461 19.3846C18.461 19.6296 18.5583 19.8645 18.7315 20.0377L19.6546 20.9608C19.7404 21.0465 19.8422 21.1146 19.9542 21.161C20.0663 21.2074 20.1864 21.2313 20.3077 21.2313C20.429 21.2313 20.5491 21.2074 20.6611 21.161C20.7732 21.1146 20.875 21.0465 20.9608 20.9608C21.0465 20.875 21.1146 20.7732 21.161 20.6611C21.2074 20.5491 21.2313 20.429 21.2313 20.3077C21.2313 20.1864 21.2074 20.0663 21.161 19.9542C21.1146 19.8422 21.0465 19.7404 20.9608 19.6546L20.0377 18.7315ZM1.84615 11.0769H0.923077C0.678262 11.0769 0.443473 11.1742 0.270363 11.3473C0.0972524 11.5204 0 11.7552 0 12C0 12.2448 0.0972524 12.4796 0.270363 12.6527C0.443473 12.8258 0.678262 12.9231 0.923077 12.9231H1.84615C2.09097 12.9231 2.32576 12.8258 2.49887 12.6527C2.67198 12.4796 2.76923 12.2448 2.76923 12C2.76923 11.7552 2.67198 11.5204 2.49887 11.3473C2.32576 11.1742 2.09097 11.0769 1.84615 11.0769ZM12 21.2308C11.7552 21.2308 11.5204 21.328 11.3473 21.5011C11.1742 21.6742 11.0769 21.909 11.0769 22.1538V23.0769C11.0769 23.3217 11.1742 23.5565 11.3473 23.7296C11.5204 23.9027 11.7552 24 12 24C12.2448 24 12.4796 23.9027 12.6527 23.7296C12.8258 23.5565 12.9231 23.3217 12.9231 23.0769V22.1538C12.9231 21.909 12.8258 21.6742 12.6527 21.5011C12.4796 21.328 12.2448 21.2308 12 21.2308ZM23.0769 11.0769H22.1538C21.909 11.0769 21.6742 11.1742 21.5011 11.3473C21.328 11.5204 21.2308 11.7552 21.2308 12C21.2308 12.2448 21.328 12.4796 21.5011 12.6527C21.6742 12.8258 21.909 12.9231 22.1538 12.9231H23.0769C23.3217 12.9231 23.5565 12.8258 23.7296 12.6527C23.9027 12.4796 24 12.2448 24 12C24 11.7552 23.9027 11.5204 23.7296 11.3473C23.5565 11.1742 23.3217 11.0769 23.0769 11.0769Z" fill="current"/>
</svg>
