<svg width="115" height="69" viewBox="0 0 115 69" fill="none" xmlns="http://www.w3.org/2000/svg">
<path fill-rule="evenodd" clip-rule="evenodd" d="M57.619 0C42.2529 0 32.6516 7.63677 28.8084 22.9103C34.571 15.2735 41.2932 12.4103 48.9752 14.3184C53.3581 15.4068 56.4923 18.5681 59.9584 22.0681C65.6081 27.7674 72.1474 34.3632 86.4274 34.3632C101.791 34.3632 111.395 26.7265 115.236 11.4552C109.475 19.0919 102.753 21.9552 95.0713 20.0448C90.6861 18.9565 87.5519 15.7952 84.0858 12.2974C78.4361 6.59355 71.899 0 57.619 0ZM28.8084 34.3632C13.4445 34.3632 3.84097 42 0 57.2735C5.76258 49.6368 12.4848 46.7735 20.1645 48.6816C24.5497 49.77 27.6839 52.9313 31.15 56.4313C36.7997 62.1306 43.3368 68.7265 57.619 68.7265C72.9829 68.7265 82.5865 61.0919 86.4274 45.8184C80.6648 53.4552 73.9426 56.3184 66.2606 54.4103C61.8777 53.3197 58.7435 50.1584 55.2774 46.6606C49.6277 40.9613 43.0884 34.3632 28.8084 34.3632Z" fill="current"/>
</svg>
