<svg width="102" height="101" viewBox="0 0 102 101" fill="none" xmlns="http://www.w3.org/2000/svg">
<path fill-rule="evenodd" clip-rule="evenodd" d="M3.825 0H98.1749C100.287 0 102 1.71251 102 3.825V98.175C102 100.288 100.287 102 98.1749 102H3.825C1.71251 102 0 100.288 0 98.175V3.825C0 1.71251 1.71251 0 3.825 0ZM56.7011 54.2656V45.9H20.4V54.2656H33.3601V91.5136H43.6774V54.2656H56.7011ZM60.8144 90.5301C62.4781 91.3783 64.4459 92.0146 66.7175 92.4387C68.9894 92.8628 71.3835 93.075 73.9006 93.075C76.3537 93.075 78.6838 92.8416 80.8917 92.3751C83.0992 91.9087 85.0348 91.1397 86.6985 90.0687C88.3622 88.9977 89.6795 87.5984 90.6501 85.8699C91.6206 84.1414 92.1059 82.0049 92.1059 79.46C92.1059 77.6149 91.8285 75.9982 91.2738 74.6091C90.7195 73.2199 89.9197 71.9845 88.8743 70.9029C87.8293 69.8214 86.576 68.8512 85.1147 67.9924C83.6535 67.1337 82.0061 66.3224 80.1718 65.5589C78.8277 65.0073 77.6225 64.4718 76.5561 63.9524C75.4894 63.433 74.5829 62.9026 73.8366 62.362C73.0899 61.821 72.5142 61.2486 72.1089 60.6441C71.7035 60.0399 71.501 59.3558 71.501 58.5923C71.501 57.8925 71.6822 57.2616 72.0449 56.6998C72.4076 56.1377 72.9192 55.6551 73.5806 55.2522C74.2419 54.8493 75.0523 54.5367 76.0123 54.3138C76.972 54.0914 78.0387 53.98 79.2117 53.98C80.0651 53.98 80.9662 54.0435 81.9154 54.1706C82.8646 54.2981 83.8192 54.4943 84.7788 54.7591C85.7389 55.0243 86.6722 55.3581 87.5787 55.7614C88.4852 56.1643 89.3223 56.6308 90.0903 57.1608V47.6497C88.5329 47.0557 86.832 46.6156 84.9867 46.3296C83.1419 46.0432 81.0247 45.9 78.6357 45.9C76.2043 45.9 73.9006 46.1597 71.7249 46.6795C69.5491 47.1989 67.6349 48.0102 65.9816 49.113C64.3284 50.2158 63.022 51.6206 62.0623 53.3276C61.1022 55.0349 60.6224 57.0761 60.6224 59.4511C60.6224 62.484 61.5022 65.0713 63.2621 67.2129C65.022 69.3549 67.6934 71.1681 71.2768 72.6526C72.6849 73.2254 73.9964 73.7872 75.2125 74.3388C76.4281 74.89 77.4786 75.4627 78.3638 76.0563C79.2489 76.6503 79.9475 77.2968 80.4596 77.9967C80.9716 78.6965 81.2276 79.4917 81.2276 80.3827C81.2276 81.0402 81.0674 81.6498 80.7474 82.2116C80.4274 82.7738 79.9421 83.2614 79.2916 83.6749C78.6411 84.0884 77.8308 84.4121 76.8603 84.6451C75.8897 84.8785 74.7536 84.995 73.4526 84.995C71.2342 84.995 69.0371 84.6082 66.8614 83.8342C64.686 83.0602 62.6701 81.8989 60.8144 80.3509V90.5301Z" fill="current"/>
</svg>
